<svg width="170" height="110" viewBox="0 0 170 110" fill="none" xmlns="http://www.w3.org/2000/svg">
<g clip-path="url(#clip0_2017_29)">
<path d="M170 51.6446C170 56.021 168.343 60.2362 165.359 63.4476C162.376 66.659 158.285 68.6299 153.907 68.9664C153.759 68.9775 153.609 68.9886 153.459 68.9953V52.5066C153.46 52.3418 153.423 52.179 153.352 52.0303C153.28 51.8815 153.177 51.7505 153.048 51.6468C153.033 51.6316 153.017 51.6182 152.999 51.6067C152.983 51.5936 152.966 51.5817 152.948 51.5711C152.791 51.4704 152.611 51.4105 152.424 51.3969C152.238 51.3832 152.052 51.4163 151.881 51.4931L151.696 51.0878C151.899 50.9957 152.119 50.9479 152.342 50.9474L139.61 40.0181C139.708 39.9067 139.811 39.7976 139.914 39.6884C142.314 37.1672 145.418 35.4211 148.825 34.6758C152.231 33.9306 155.783 34.2203 159.023 35.5077C162.262 36.795 165.04 39.0208 166.997 41.8975C168.954 44.7741 170 48.1694 170 51.6446V51.6446Z" fill="#F2F2F2"/>
<path d="M4.42065 63.4907C4.35733 63.1684 4.36571 62.8362 4.4452 62.5174C4.52469 62.1986 4.67335 61.9011 4.88071 61.6458C5.08808 61.3905 5.3491 61.1836 5.64539 61.0396C5.94168 60.8957 6.26604 60.8183 6.59562 60.8128L16.6456 48.8915L19.1546 52.0881L8.91228 63.1828C8.88485 63.7352 8.65506 64.2583 8.26643 64.653C7.87781 65.0478 7.35737 65.2868 6.80372 65.3248C6.25007 65.3627 5.70168 65.197 5.26247 64.859C4.82325 64.5209 4.52373 64.0341 4.42066 63.4907H4.42065Z" fill="#FFB8B8"/>
<path d="M52.1445 48.8178C52.0742 48.9191 52.012 49.0259 51.9585 49.137L40.9849 50.7001L39.3185 48.592L35.7971 50.6821L39.1072 55.8247L52.4906 51.8935C52.8438 52.2121 53.286 52.4159 53.7583 52.478C54.2306 52.5401 54.7106 52.4574 55.1346 52.241C55.5586 52.0246 55.9065 51.6847 56.1319 51.2665C56.3573 50.8483 56.4496 50.3716 56.3965 49.8999C56.3434 49.4281 56.1474 48.9836 55.8347 48.6256C55.5219 48.2675 55.1072 48.0128 54.6456 47.8953C54.184 47.7779 53.6975 47.8032 53.2507 47.968C52.804 48.1328 52.4181 48.4292 52.1445 48.8178Z" fill="#FFB8B8"/>
<path d="M33.3999 88.6488L35.3419 90.5754L43.7239 84.0289L40.8579 81.1853L33.3999 88.6488Z" fill="#FFB8B8"/>
<path d="M37.2915 96.088L31.1885 90.0327L33.5364 87.6831L37.2814 91.3988C37.591 91.706 37.8369 92.071 38.005 92.473C38.1731 92.8749 38.2601 93.3059 38.2611 93.7413C38.262 94.1768 38.1769 94.6081 38.0105 95.0108C37.8441 95.4134 37.5998 95.7794 37.2915 96.088L37.2915 96.088Z" fill="#2F2E41"/>
<path d="M23.0778 107.129H25.8182L27.1218 96.5964H23.0774L23.0778 107.129Z" fill="#FFB8B8"/>
<path d="M31.103 109.664L22.4906 109.665L22.4904 106.349L27.7753 106.349C28.2123 106.349 28.645 106.434 29.0487 106.601C29.4525 106.768 29.8193 107.012 30.1283 107.32C30.4373 107.628 30.6824 107.993 30.8497 108.395C31.0169 108.798 31.103 109.229 31.103 109.664V109.664Z" fill="#2F2E41"/>
<path d="M22.4819 98.9942L19.3606 76.0559C18.8721 72.5893 19.0237 69.0629 19.8079 65.6507C20.4484 62.9085 21.3137 61.0089 22.3799 60.0052C22.5482 59.8479 22.7635 59.7499 22.9931 59.7262L33.2988 58.6564C33.4973 58.6362 33.6975 58.6727 33.876 58.7616C34.0545 58.8504 34.204 58.9881 34.3069 59.1584L34.6457 59.721C34.6868 59.7893 34.72 59.862 34.7446 59.9378L36.9235 66.6687C36.956 66.7704 37.0085 66.8647 37.0779 66.946C37.1473 67.0273 37.2322 67.094 37.3277 67.1424C40.7583 68.8876 51.9021 74.7792 51.2643 77.3211C50.6651 79.7095 45.0551 83.582 43.3499 84.7119C43.1763 84.8276 42.9718 84.8886 42.7629 84.887C42.554 84.8855 42.3505 84.8214 42.1786 84.7031L39.3482 82.7734C39.21 82.6792 39.0964 82.5533 39.017 82.4064C38.9376 82.2595 38.8947 82.0958 38.8917 81.929C38.8888 81.7621 38.926 81.597 39.0002 81.4474C39.0744 81.2979 39.1835 81.1682 39.3183 81.0692L41.2702 79.636C41.3896 79.5483 41.4828 79.4298 41.5397 79.2932C41.5966 79.1566 41.615 79.0072 41.593 78.8609C41.571 78.7147 41.5094 78.5772 41.4149 78.4632C41.3203 78.3493 41.1963 78.2632 41.0563 78.2142L30.5735 74.549C30.4558 74.5079 30.3302 74.4941 30.2063 74.5089C30.0825 74.5237 29.9637 74.5666 29.859 74.6343C29.7544 74.702 29.6668 74.7927 29.6028 74.8994C29.5389 75.0061 29.5004 75.126 29.4902 75.2499L27.5574 98.7898C27.536 99.0422 27.4237 99.2784 27.2411 99.4546C27.0586 99.6308 26.8181 99.7352 26.5643 99.7484L23.5737 99.8975C23.5555 99.8984 23.5375 99.8988 23.5194 99.8988C23.2656 99.8998 23.0202 99.8084 22.8291 99.6419C22.6381 99.4753 22.5147 99.245 22.4819 98.9942V98.9942Z" fill="#2F2E41"/>
<path d="M27.2084 39.6649C30.2404 39.6649 32.6983 37.2156 32.6983 34.1944C32.6983 31.1731 30.2404 28.7239 27.2084 28.7239C24.1764 28.7239 21.7185 31.1731 21.7185 34.1944C21.7185 37.2156 24.1764 39.6649 27.2084 39.6649Z" fill="#FFB8B8"/>
<path d="M22.0736 59.0682L18.0325 44.3758L18.1017 44.3293C18.1885 44.271 26.8987 38.5397 37.0966 43.1584L37.2815 43.2641L34.887 58.5138C34.8347 58.8618 34.6623 59.1807 34.3993 59.4156C34.1363 59.6505 33.7994 59.7866 33.4465 59.8004L23.5931 60.1781C23.5732 60.1787 23.5534 60.1792 23.5337 60.1792C23.2015 60.18 22.8784 60.0715 22.6144 59.8706C22.3504 59.6697 22.1603 59.3877 22.0736 59.0682V59.0682Z" fill="#CCCCCC"/>
<path d="M17.8786 53.9407L14.513 50.0841C14.3509 49.8988 14.2596 49.6624 14.2553 49.4166C14.2509 49.1708 14.3338 48.9314 14.4892 48.7405L18.0076 44.4095L20.7085 45.1436L22.1404 50.1376L19.5295 53.8543C19.4385 53.9847 19.3186 54.0926 19.1792 54.1696C19.0397 54.2467 18.8844 54.2908 18.7251 54.2987C18.7063 54.2996 18.6876 54.3 18.6688 54.3C18.5189 54.3003 18.3707 54.2684 18.2344 54.2064C18.098 54.1444 17.9766 54.0538 17.8786 53.9407V53.9407Z" fill="#CCCCCC"/>
<path d="M36.4902 53.1372C36.331 53.1294 36.1757 53.0852 36.0362 53.0082C35.8968 52.9312 35.7769 52.8233 35.6858 52.6929L33.075 48.9762L34.3308 43.7192L36.8176 43.0433L37.2816 43.264L40.7261 47.5791C40.8816 47.77 40.9644 48.0094 40.9601 48.2552C40.9557 48.501 40.8644 48.7373 40.7023 48.9226L37.3367 52.7793C37.2387 52.8923 37.1174 52.9829 36.981 53.0449C36.8446 53.1069 36.6964 53.1389 36.5465 53.1386C36.5279 53.1386 36.509 53.1381 36.4902 53.1372Z" fill="#CCCCCC"/>
<path d="M153.459 51.4152C153.461 51.4707 153.442 51.5249 153.406 51.5667C153.367 51.6116 153.312 51.6394 153.253 51.644C153.194 51.6486 153.136 51.6296 153.091 51.5912L152.342 50.9475L139.61 40.0181L103.9 9.35926C103.697 9.1855 103.437 9.09019 103.169 9.09059C102.901 9.091 102.642 9.1871 102.438 9.36149L54.3501 50.9921L53.9164 51.3662C53.8998 51.3809 53.8809 51.3929 53.8606 51.4019C53.8248 51.4177 53.7854 51.4238 53.7465 51.4197C53.6907 51.4138 53.639 51.3876 53.6012 51.3462C53.5818 51.3243 53.5669 51.2988 53.5574 51.2711C53.5479 51.2435 53.544 51.2142 53.5459 51.185C53.5477 51.1558 53.5554 51.1273 53.5683 51.1011C53.5813 51.0749 53.5993 51.0514 53.6213 51.0321L53.6817 50.9787L102.146 9.02517C102.43 8.78144 102.793 8.64706 103.169 8.64624C103.544 8.64543 103.907 8.77823 104.193 9.02071L139.914 39.6885L153.381 51.2527C153.405 51.273 153.424 51.2979 153.437 51.3258C153.451 51.3538 153.458 51.3842 153.459 51.4152V51.4152Z" fill="#3F3D56"/>
<path d="M126.308 57.9925L125.72 56.3799L123.695 50.8116L119.332 38.822L114.455 25.4203L105.659 1.24739C105.487 0.776002 105.133 0.392019 104.677 0.179531C104.221 -0.0329557 103.699 -0.0566283 103.225 0.113697L52.3718 18.4867C51.8986 18.6587 51.5131 19.0105 51.2998 19.4652C51.0866 19.9199 51.0629 20.4403 51.2341 20.9123L63.7044 55.1816L63.9166 55.7674L77.0061 61.6786L80.6852 63.3402L81.282 63.6097L96.8593 70.6458L97.4627 70.4275L107.68 66.7369L123.092 61.1686L125.168 60.418C125.642 60.2462 126.027 59.8945 126.241 59.4399C126.455 58.9853 126.479 58.4648 126.308 57.9925V57.9925Z" fill="#E6E6E6"/>
<path d="M104.984 29.4472C104.731 28.7535 104.211 28.1883 103.54 27.8755C102.869 27.5628 102.1 27.5281 101.404 27.779L81.2822 35.0511L71.5657 38.5614C71.2205 38.6857 70.9032 38.8766 70.6321 39.1232C70.3609 39.3698 70.1412 39.6673 69.9855 39.9985C69.8298 40.3298 69.7411 40.6884 69.7245 41.0538C69.708 41.4192 69.7638 41.7843 69.889 42.1282C70.0141 42.4721 70.206 42.7881 70.4537 43.058C70.7015 43.328 71.0002 43.5466 71.3328 43.7015C71.6654 43.8563 72.0253 43.9443 72.3921 43.9605C72.7588 43.9766 73.1251 43.9206 73.4701 43.7955L81.2822 40.9735L103.31 33.0154C104.006 32.7626 104.574 32.245 104.887 31.5762C105.201 30.9073 105.236 30.1417 104.984 29.4472V29.4472Z" fill="white"/>
<path d="M108.527 39.185C108.274 38.4913 107.754 37.9261 107.083 37.6133C106.412 37.3006 105.643 37.2659 104.946 37.5168L101.538 38.7485L81.2822 46.0674L75.1086 48.2969C74.4124 48.5491 73.8452 49.0663 73.5315 49.735C73.2178 50.4037 73.1834 51.1691 73.4358 51.8631C73.6882 52.557 74.2067 53.1228 74.8775 53.436C75.5483 53.7492 76.3164 53.7842 77.013 53.5333L81.2822 51.9898L106.853 42.7509C106.911 42.7309 106.967 42.7064 107.023 42.6819C107.672 42.398 108.189 41.8788 108.468 41.2295C108.748 40.5802 108.769 39.8493 108.527 39.185V39.185Z" fill="white"/>
<path d="M112.108 49.0253C111.855 48.3317 111.336 47.7665 110.665 47.4537C109.994 47.141 109.226 47.1062 108.529 47.3571L98.9694 50.8116L91.5686 53.4866L81.2821 57.2018L78.6893 58.1395C78.0901 58.357 77.5833 58.7718 77.2529 59.3153C76.9224 59.8589 76.7881 60.4985 76.872 61.1285C76.8977 61.316 76.9426 61.5003 77.0062 61.6786L80.6853 63.3402L81.2821 63.1242H81.2866L99.9529 56.3799L110.434 52.5935C111.13 52.3412 111.698 51.8237 112.012 51.1547C112.326 50.4856 112.36 49.7197 112.108 49.0253H112.108Z" fill="white"/>
<path d="M91.1574 19.8742C90.9037 19.1805 90.3843 18.6153 89.7131 18.3025C89.0418 17.9898 88.2735 17.9551 87.5766 18.206L76.0205 22.3799C75.3243 22.6321 74.757 23.1493 74.4434 23.818C74.1297 24.4867 74.0953 25.2521 74.3476 25.9461C74.6 26.6401 75.1186 27.2058 75.7894 27.519C76.4601 27.8322 77.2282 27.8672 77.9249 27.6163L81.5818 26.2956L84.0024 25.4202L89.4833 23.4401C90.1794 23.1879 90.7466 22.6707 91.0604 22.0022C91.3743 21.3337 91.4092 20.5684 91.1574 19.8742Z" fill="white"/>
<path d="M137.274 25.4203H83.1822C82.8631 25.4206 82.5493 25.501 82.2696 25.6539C81.9899 25.8069 81.7534 26.0276 81.5818 26.2956C81.3857 26.5991 81.2816 26.9525 81.2822 27.3135V63.6097L96.8595 70.6457L99.0545 71.6369L102.521 73.2027C102.724 73.2941 102.944 73.3413 103.167 73.3413C103.39 73.3413 103.61 73.2941 103.813 73.2027L107.28 71.6369L118.13 66.7368L128.242 62.1686L139.174 57.2329V27.3135C139.174 26.8115 138.974 26.3301 138.617 25.9752C138.261 25.6202 137.778 25.4206 137.274 25.4203Z" fill="#2F9FF8"/>
<path d="M126.098 50.8116H94.3582C93.6365 50.8121 92.9429 51.0908 92.4229 51.5895C91.9029 52.0881 91.5967 52.768 91.5686 53.4866C91.5649 53.5229 91.5634 53.5593 91.5642 53.5958C91.5652 54.3338 91.8599 55.0414 92.3837 55.5633C92.9074 56.0852 93.6175 56.3789 94.3582 56.3799H126.098C126.839 56.3799 127.55 56.0866 128.074 55.5644C128.598 55.0423 128.892 54.3342 128.892 53.5958C128.892 52.8574 128.598 52.1492 128.074 51.6271C127.55 51.105 126.839 50.8116 126.098 50.8116Z" fill="white"/>
<path d="M127.906 61.8323C127.403 61.4028 126.761 61.1674 126.098 61.1686H94.358C93.617 61.1686 92.9063 61.4619 92.3823 61.984C91.8583 62.5062 91.564 63.2143 91.564 63.9527C91.564 64.6911 91.8583 65.3993 92.3823 65.9214C92.9063 66.4435 93.617 66.7368 94.358 66.7368H118.129L128.242 62.1686C128.14 62.0473 128.027 61.9348 127.906 61.8323Z" fill="white"/>
<path d="M99.0542 71.6368L102.521 73.2026C102.724 73.294 102.944 73.3413 103.167 73.3413C103.39 73.3413 103.61 73.294 103.813 73.2026L107.28 71.6368H99.0542Z" fill="white"/>
<path d="M118.999 38.9423C118.802 38.4063 118.445 37.9435 117.976 37.6164C117.506 37.2894 116.948 37.1139 116.375 37.1136H104.081C103.544 37.1141 103.019 37.2685 102.568 37.5584C102.117 37.8483 101.759 38.2615 101.537 38.7485C101.372 39.1091 101.287 39.5012 101.287 39.8978C101.288 40.6359 101.583 41.3434 102.107 41.8653C102.63 42.3872 103.34 42.6809 104.081 42.6819H116.375C116.824 42.682 117.267 42.5739 117.666 42.367C118.064 42.1601 118.407 41.8604 118.665 41.4933C118.922 41.1263 119.087 40.7027 119.145 40.2586C119.204 39.8145 119.153 39.3629 118.999 38.9423Z" fill="white"/>
<path d="M117.045 66.7369L106.196 71.637L103.628 72.7974C103.483 72.8624 103.326 72.896 103.167 72.896C103.008 72.896 102.851 72.8624 102.707 72.7974L100.138 71.637H99.0543L102.521 73.2028C102.724 73.2942 102.944 73.3414 103.167 73.3414C103.39 73.3414 103.61 73.2942 103.813 73.2028L107.28 71.637L118.13 66.7369H117.045ZM117.045 66.7369L106.196 71.637L103.628 72.7974C103.483 72.8624 103.326 72.896 103.167 72.896C103.008 72.896 102.851 72.8624 102.707 72.7974L100.138 71.637H99.0543L102.521 73.2028C102.724 73.2942 102.944 73.3414 103.167 73.3414C103.39 73.3414 103.61 73.2942 103.813 73.2028L107.28 71.637L118.13 66.7369H117.045ZM117.045 66.7369L106.196 71.637L103.628 72.7974C103.483 72.8624 103.326 72.896 103.167 72.896C103.008 72.896 102.851 72.8624 102.707 72.7974L100.138 71.637H99.0543L102.521 73.2028C102.724 73.2942 102.944 73.3414 103.167 73.3414C103.39 73.3414 103.61 73.2942 103.813 73.2028L107.28 71.637L118.13 66.7369H117.045ZM153.459 51.4153C153.377 51.3335 153.286 51.2604 153.189 51.197C152.969 51.0551 152.717 50.9708 152.456 50.9517C152.195 50.9326 151.934 50.9794 151.696 51.0878L127.906 61.8324L117.045 66.7369L106.196 71.637L103.628 72.7974C103.483 72.8624 103.326 72.896 103.167 72.896C103.008 72.896 102.851 72.8624 102.707 72.7974L100.138 71.637L97.4628 70.4275L81.2865 63.1242L81.2821 63.122L76.872 61.1286L63.7044 55.1816L54.6384 51.0879C54.5461 51.0453 54.4494 51.0132 54.35 50.9921C54.1311 50.9376 53.9026 50.933 53.6817 50.9787C53.3282 51.0508 53.0104 51.2422 52.782 51.5205C52.5536 51.7988 52.4285 52.1471 52.4277 52.5066V108.441C52.4282 108.854 52.5932 109.251 52.8865 109.543C53.1798 109.835 53.5776 110 53.9924 110H152.342C152.757 110 153.154 109.835 153.448 109.543C153.741 109.251 153.906 108.854 153.906 108.441V52.5066C153.907 52.0984 153.747 51.7064 153.459 51.4152V51.4153ZM153.459 108.441C153.459 108.736 153.342 109.019 153.132 109.228C152.922 109.437 152.638 109.555 152.342 109.555H53.9924C53.696 109.555 53.4118 109.437 53.2022 109.228C52.9927 109.019 52.8749 108.736 52.8748 108.441V52.5066C52.8749 52.3205 52.9218 52.1374 53.0112 51.974C53.1006 51.8105 53.2297 51.6721 53.3866 51.5712C53.4971 51.5007 53.6188 51.4495 53.7465 51.4197C53.7841 51.4116 53.8222 51.4057 53.8605 51.4019C53.9042 51.3956 53.9483 51.3926 53.9924 51.393C54.1513 51.3932 54.3083 51.4274 54.4528 51.4932L63.9167 55.7674L77.0061 61.6787L80.6853 63.3403L81.2821 63.6098L96.8594 70.6458L99.0543 71.637L102.521 73.2028C102.724 73.2942 102.944 73.3414 103.167 73.3414C103.39 73.3414 103.61 73.2942 103.813 73.2028L107.28 71.637L118.13 66.7369L128.242 62.1687L151.881 51.4932C152.051 51.4164 152.238 51.3833 152.424 51.3969C152.611 51.4106 152.79 51.4705 152.948 51.5712C152.966 51.5817 152.983 51.5937 152.999 51.6068C153.017 51.6183 153.033 51.6317 153.048 51.6469C153.177 51.7506 153.28 51.8816 153.352 52.0303C153.423 52.1791 153.46 52.3418 153.459 52.5066L153.459 108.441ZM117.045 66.7369L106.196 71.637L103.628 72.7974C103.483 72.8624 103.326 72.896 103.167 72.896C103.008 72.896 102.851 72.8624 102.707 72.7974L100.138 71.637H99.0543L102.521 73.2028C102.724 73.2942 102.944 73.3414 103.167 73.3414C103.39 73.3414 103.61 73.2942 103.813 73.2028L107.28 71.637L118.13 66.7369H117.045ZM117.045 66.7369L106.196 71.637L103.628 72.7974C103.483 72.8624 103.326 72.896 103.167 72.896C103.008 72.896 102.851 72.8624 102.707 72.7974L100.138 71.637H99.0543L102.521 73.2028C102.724 73.2942 102.944 73.3414 103.167 73.3414C103.39 73.3414 103.61 73.2942 103.813 73.2028L107.28 71.637L118.13 66.7369H117.045ZM80.6853 63.3403L81.2821 63.6098V63.1242L80.6853 63.3403ZM117.045 66.7369L106.196 71.637L103.628 72.7974C103.483 72.8624 103.326 72.896 103.167 72.896C103.008 72.896 102.851 72.8624 102.707 72.7974L100.138 71.637H99.0543L102.521 73.2028C102.724 73.2942 102.944 73.3414 103.167 73.3414C103.39 73.3414 103.61 73.2942 103.813 73.2028L107.28 71.637L118.13 66.7369H117.045Z" fill="#3F3D56"/>
<path d="M39.2339 110H13.976C13.9167 110 13.8598 109.977 13.8179 109.935C13.776 109.893 13.7524 109.836 13.7524 109.777C13.7524 109.718 13.776 109.662 13.8179 109.62C13.8598 109.578 13.9167 109.555 13.976 109.555H39.2339C39.2932 109.555 39.35 109.578 39.3919 109.62C39.4339 109.662 39.4574 109.718 39.4574 109.777C39.4574 109.836 39.4339 109.893 39.3919 109.935C39.35 109.977 39.2932 110 39.2339 110Z" fill="#3F3D56"/>
<path d="M25.121 38.1951C24.7086 37.9866 24.3658 37.6635 24.1339 37.2648C23.902 36.8661 23.791 36.409 23.8144 35.9489C23.8378 35.4887 23.9946 35.0451 24.2658 34.6718C24.5369 34.2986 24.9108 34.0116 25.3422 33.8457C26.9989 33.2087 28.856 34.5088 30.5926 34.1392C32.3234 33.7708 33.3246 31.7089 32.9115 29.994C32.4984 28.2791 30.9947 26.9875 29.3367 26.3706C28.2538 25.9687 27.0941 25.8147 25.9434 25.9198C24.7926 26.0249 23.6804 26.3865 22.6889 26.9778C21.7076 27.5865 20.8903 28.4247 20.3082 29.4198C19.726 30.4148 19.3965 31.5364 19.3484 32.6872C19.3259 33.839 19.6083 34.9764 20.1672 35.9849C20.7261 36.9933 21.5418 37.8372 22.5322 38.4316C22.9735 38.6851 23.4873 38.8886 23.9836 38.7745C24.3912 38.6426 24.7751 38.447 25.121 38.1951V38.1951Z" fill="#2F2E41"/>
</g>
<defs>
<clipPath id="clip0_2017_29">
<rect width="170" height="110" fill="white"/>
</clipPath>
</defs>
</svg>
